<svg width="1280" height="640" viewBox="0 0 1280 640" fill="none" xmlns="http://www.w3.org/2000/svg">
  <defs>
    <linearGradient id="bg" x1="96" y1="72" x2="1190" y2="586" gradientUnits="userSpaceOnUse">
      <stop stop-color="#0B1220"/>
      <stop offset="0.55" stop-color="#14243D"/>
      <stop offset="1" stop-color="#1F4B63"/>
    </linearGradient>
    <linearGradient id="card" x1="153" y1="142" x2="1124" y2="513" gradientUnits="userSpaceOnUse">
      <stop stop-color="#0F172A" stop-opacity="0.92"/>
      <stop offset="1" stop-color="#16263D" stop-opacity="0.86"/>
    </linearGradient>
    <linearGradient id="accent" x1="245" y1="182" x2="1010" y2="471" gradientUnits="userSpaceOnUse">
      <stop stop-color="#6EE7B7"/>
      <stop offset="0.5" stop-color="#38BDF8"/>
      <stop offset="1" stop-color="#F59E0B"/>
    </linearGradient>
    <filter id="shadow" x="116" y="109" width="1048" height="423" filterUnits="userSpaceOnUse" color-interpolation-filters="sRGB">
      <feFlood flood-opacity="0" result="BackgroundImageFix"/>
      <feColorMatrix in="SourceAlpha" type="matrix" values="0 0 0 0 0 0 0 0 0 0 0 0 0 0 0 0 0 0 127 0" result="hardAlpha"/>
      <feOffset dy="10"/>
      <feGaussianBlur stdDeviation="18"/>
      <feComposite in2="hardAlpha" operator="out"/>
      <feColorMatrix type="matrix" values="0 0 0 0 0.0208333 0 0 0 0 0.0583333 0 0 0 0 0.120833 0 0 0 0.36 0"/>
      <feBlend mode="normal" in2="BackgroundImageFix" result="effect1_dropShadow_1_2"/>
      <feBlend mode="normal" in="SourceGraphic" in2="effect1_dropShadow_1_2" result="shape"/>
    </filter>
  </defs>

  <rect width="1280" height="640" rx="36" fill="url(#bg)"/>
  <circle cx="1141" cy="114" r="168" fill="#38BDF8" fill-opacity="0.08"/>
  <circle cx="172" cy="528" r="156" fill="#6EE7B7" fill-opacity="0.08"/>
  <path d="M128 466C250 407 364 380 470 385C584 391 686 441 793 444C910 448 1025 396 1152 301" stroke="url(#accent)" stroke-opacity="0.26" stroke-width="2"/>
  <path d="M128 507C266 448 380 426 493 435C610 444 716 489 826 492C939 496 1041 456 1152 381" stroke="white" stroke-opacity="0.08" stroke-width="2"/>

  <g filter="url(#shadow)">
    <rect x="152" y="135" width="976" height="351" rx="28" fill="url(#card)" stroke="rgba(255,255,255,0.10)"/>
    <rect x="212" y="197" width="152" height="34" rx="17" fill="#0D2032"/>
    <text x="238" y="219" fill="#9DD7F9" font-family="Segoe UI, Arial, sans-serif" font-size="16" font-weight="700" letter-spacing="0.08em">OPERATOR OS</text>

    <text x="212" y="297" fill="white" font-family="Segoe UI, Arial, sans-serif" font-size="64" font-weight="800">FDE Operator OS</text>
    <text x="212" y="347" fill="#C6D4E6" font-family="Segoe UI, Arial, sans-serif" font-size="24" font-weight="500">Qualify AI bets. Model messy reality. Design delivery-ready loops.</text>

    <g opacity="0.94">
      <rect x="212" y="391" width="160" height="52" rx="16" fill="#0E2234"/>
      <text x="236" y="423" fill="#E2F3FF" font-family="Segoe UI, Arial, sans-serif" font-size="18" font-weight="700">Mission Fit</text>

      <rect x="392" y="391" width="190" height="52" rx="16" fill="#10263A"/>
      <text x="416" y="423" fill="#E2F3FF" font-family="Segoe UI, Arial, sans-serif" font-size="18" font-weight="700">Reality Capture</text>

      <rect x="602" y="391" width="188" height="52" rx="16" fill="#112A38"/>
      <text x="626" y="423" fill="#E2F3FF" font-family="Segoe UI, Arial, sans-serif" font-size="18" font-weight="700">Pilot Loop</text>

      <rect x="810" y="391" width="190" height="52" rx="16" fill="#153022"/>
      <text x="835" y="423" fill="#E6F9EE" font-family="Segoe UI, Arial, sans-serif" font-size="18" font-weight="700">Scale Logic</text>
    </g>

    <path d="M870 228C909 212 944 209 976 216C1008 223 1038 241 1065 265" stroke="url(#accent)" stroke-width="5" stroke-linecap="round"/>
    <circle cx="877" cy="226" r="7" fill="#6EE7B7"/>
    <circle cx="971" cy="216" r="7" fill="#38BDF8"/>
    <circle cx="1065" cy="265" r="7" fill="#F59E0B"/>

    <text x="878" y="303" fill="#C4D7EA" font-family="Segoe UI, Arial, sans-serif" font-size="18" font-weight="600">From ambiguous opportunity</text>
    <text x="878" y="331" fill="#C4D7EA" font-family="Segoe UI, Arial, sans-serif" font-size="18" font-weight="600">to an accountable operating loop</text>
  </g>
</svg>
