<svg width="1280" height="640" viewBox="0 0 1280 640" fill="none" xmlns="http://www.w3.org/2000/svg">
  <defs>
    <linearGradient id="bg2" x1="96" y1="62" x2="1180" y2="582" gradientUnits="userSpaceOnUse">
      <stop stop-color="#071427"/>
      <stop offset="0.52" stop-color="#10243F"/>
      <stop offset="1" stop-color="#123F53"/>
    </linearGradient>
    <linearGradient id="panel2" x1="136" y1="116" x2="1158" y2="518" gradientUnits="userSpaceOnUse">
      <stop stop-color="#0C172A" stop-opacity="0.94"/>
      <stop offset="1" stop-color="#15263A" stop-opacity="0.90"/>
    </linearGradient>
    <linearGradient id="accent2" x1="180" y1="176" x2="1062" y2="474" gradientUnits="userSpaceOnUse">
      <stop stop-color="#53E3C2"/>
      <stop offset="0.55" stop-color="#50B8FF"/>
      <stop offset="1" stop-color="#F6A723"/>
    </linearGradient>
  </defs>

  <rect width="1280" height="640" rx="36" fill="url(#bg2)"/>
  <circle cx="176" cy="110" r="182" fill="#50B8FF" fill-opacity="0.07"/>
  <circle cx="1118" cy="526" r="188" fill="#53E3C2" fill-opacity="0.08"/>

  <path d="M98 502C232 438 334 416 444 422C568 430 674 490 800 488C922 486 1034 437 1176 316" stroke="url(#accent2)" stroke-opacity="0.26" stroke-width="2"/>
  <path d="M98 538C246 478 358 455 476 462C596 468 700 514 821 514C942 513 1048 474 1176 388" stroke="white" stroke-opacity="0.06" stroke-width="2"/>

  <rect x="136" y="120" width="1008" height="374" rx="30" fill="url(#panel2)" stroke="rgba(255,255,255,0.1)"/>

  <rect x="188" y="178" width="182" height="34" rx="17" fill="#0C2133"/>
  <text x="212" y="200" fill="#A2D7F8" font-family="Microsoft YaHei, Segoe UI, Arial, sans-serif" font-size="16" font-weight="700" letter-spacing="0.08em">面向交付负责人的 Operator OS</text>

  <text x="188" y="286" fill="white" font-family="Microsoft YaHei, Segoe UI, Arial, sans-serif" font-size="66" font-weight="800">FDE Operator OS</text>
  <text x="188" y="342" fill="#C9D8EA" font-family="Microsoft YaHei, Segoe UI, Arial, sans-serif" font-size="24" font-weight="500">判断 AI 机会，结构化真实现场，设计可交付的最小闭环。</text>

  <rect x="188" y="390" width="176" height="50" rx="15" fill="#0E2234"/>
  <text x="214" y="422" fill="#E5F4FF" font-family="Microsoft YaHei, Segoe UI, Arial, sans-serif" font-size="18" font-weight="700">机会判断</text>

  <rect x="382" y="390" width="176" height="50" rx="15" fill="#10253B"/>
  <text x="408" y="422" fill="#E5F4FF" font-family="Microsoft YaHei, Segoe UI, Arial, sans-serif" font-size="18" font-weight="700">现场建模</text>

  <rect x="576" y="390" width="176" height="50" rx="15" fill="#10283A"/>
  <text x="602" y="422" fill="#E5F4FF" font-family="Microsoft YaHei, Segoe UI, Arial, sans-serif" font-size="18" font-weight="700">试点闭环</text>

  <rect x="770" y="390" width="176" height="50" rx="15" fill="#16301F"/>
  <text x="796" y="422" fill="#F0FAF5" font-family="Microsoft YaHei, Segoe UI, Arial, sans-serif" font-size="18" font-weight="700">扩展逻辑</text>

  <circle cx="944" cy="252" r="108" stroke="#2F5977" stroke-width="2"/>
  <circle cx="944" cy="252" r="84" stroke="#4FA7E7" stroke-opacity="0.42" stroke-width="18"/>
  <path d="M944 167A85 85 0 0 1 1015 206" stroke="#57DDBD" stroke-width="18" stroke-linecap="round"/>
  <path d="M1016 298A85 85 0 0 1 944 337" stroke="#F6A723" stroke-width="18" stroke-linecap="round"/>
  <path d="M873 206A85 85 0 0 1 873 298" stroke="#50B8FF" stroke-width="18" stroke-linecap="round"/>

  <text x="914" y="154" fill="#BFD3E6" font-family="Microsoft YaHei, Segoe UI, Arial, sans-serif" font-size="16" font-weight="700">观察</text>
  <text x="1020" y="258" fill="#BFD3E6" font-family="Microsoft YaHei, Segoe UI, Arial, sans-serif" font-size="16" font-weight="700" transform="rotate(90 1020 258)">研判</text>
  <text x="916" y="366" fill="#E8D6AF" font-family="Microsoft YaHei, Segoe UI, Arial, sans-serif" font-size="16" font-weight="700">决策</text>
  <text x="838" y="258" fill="#BFD3E6" font-family="Microsoft YaHei, Segoe UI, Arial, sans-serif" font-size="16" font-weight="700" transform="rotate(-90 838 258)">执行</text>

  <path d="M796 252H848" stroke="url(#accent2)" stroke-width="3" stroke-linecap="round"/>
  <circle cx="784" cy="252" r="6" fill="#53E3C2"/>
  <circle cx="1056" cy="252" r="6" fill="#F6A723"/>
</svg>
